HIERARCHY
ROOT Hips
{
	OFFSET 0.000000 0.000000 0.000000 
	CHANNELS 6 Xposition Yposition Zposition Zrotation Yrotation Xrotation
	JOINT LeftUpLeg
	{
		OFFSET 1.363060 -1.794630 0.839290 
		CHANNELS 3 Zrotation Yrotation Xrotation
		JOINT LeftLeg
		{
			OFFSET 2.448110 -6.726130 0.000000 
			CHANNELS 3 Zrotation Yrotation Xrotation
			JOINT LeftFoot
			{
				OFFSET 2.562200 -7.039590 0.000000 
				CHANNELS 3 Zrotation Yrotation Xrotation
				JOINT LeftToeBase
				{
					OFFSET 0.157640 -0.433110 2.322550 
					CHANNELS 3 Zrotation Yrotation Xrotation
					End Site
					{
						OFFSET 0.000000 0.000000 0.000000 
					}
				}
			}
		}
	}
	JOINT RightUpLeg
	{
		OFFSET -1.305520 -1.794630 0.839290 
		CHANNELS 3 Zrotation Yrotation Xrotation
		JOINT RightLeg
		{
			OFFSET -2.542530 -6.985550 0.000000 
			CHANNELS 3 Zrotation Yrotation Xrotation
			JOINT RightFoot
			{
				OFFSET -2.568260 -7.056230 0.000000 
				CHANNELS 3 Zrotation Yrotation Xrotation
				JOINT RightToeBase
				{
					OFFSET -0.164730 -0.452590 2.363150 
					CHANNELS 3 Zrotation Yrotation Xrotation
					End Site
					{
						OFFSET 0.000000 0.000000 0.000000 
					}
				}
			}
		}
	}
	JOINT Spine
	{
		OFFSET 0.028270 2.035590 -0.193380 
		CHANNELS 3 Zrotation Yrotation Xrotation
		JOINT Spine1
		{
			OFFSET 0.056720 2.048850 -0.042750 
			CHANNELS 3 Zrotation Yrotation Xrotation
			JOINT Neck1
			{
				OFFSET -0.054170 1.746240 0.172020 
				CHANNELS 3 Zrotation Yrotation Xrotation
				JOINT Head
				{
					OFFSET 0.104070 1.761360 -0.123970 
					CHANNELS 3 Zrotation Yrotation Xrotation
					End Site
					{
						OFFSET 0.000000 0.000000 0.000000 
					}
				}
			}
			JOINT LeftArm
			{
				OFFSET 3.362410 1.200890 -0.311210 
				CHANNELS 3 Zrotation Yrotation Xrotation
				JOINT LeftForeArm
				{
					OFFSET 4.983000 -0.000000 -0.000000 
					CHANNELS 3 Zrotation Yrotation Xrotation
					JOINT LeftHand
					{
						OFFSET 3.483560 -0.000000 -0.000000 
						CHANNELS 3 Zrotation Yrotation Xrotation
						JOINT LeftHandIndex1
						{
							OFFSET 0.715260 -0.000000 -0.000000 
							CHANNELS 3 Zrotation Yrotation Xrotation
							End Site
							{
								OFFSET 0.000000 0.000000 0.000000 
							}
						}
					}
				}
			}
			JOINT RightArm
			{
				OFFSET -3.136600 1.374050 -0.404650 
				CHANNELS 3 Zrotation Yrotation Xrotation
				JOINT RightForeArm
				{
					OFFSET -5.241900 -0.000000 -0.000000 
					CHANNELS 3 Zrotation Yrotation Xrotation
					JOINT RightHand
					{
						OFFSET -3.444170 -0.000000 -0.000000 
						CHANNELS 3 Zrotation Yrotation Xrotation
						JOINT RightHandIndex1
						{
							OFFSET -0.622530 -0.000000 -0.000000 
							CHANNELS 3 Zrotation Yrotation Xrotation
							End Site
							{
								OFFSET 0.000000 0.000000 0.000000 
							}
						}
					}
				}
			}
		}
	}
}
MOTION
Frames: 6
Frame Time: 0.041667
0.411247 17.290677 7.704515 -8.590816 10.412317 -19.758888 -2.229736 -3.938536 -25.046603 4.676562 15.475226 46.508447 5.254606 -10.311538 27.452103 0.802800 -5.718500 -15.969800 12.829400 -6.195718 -28.232930 -14.408550 -19.494921 68.694283 2.107517 -11.174084 23.034276 -0.062000 1.606100 -4.418300 2.118525 1.737481 -1.949985 1.637121 0.647324 -3.792756 3.690778 -4.019587 9.434433 -0.647500 -2.036900 10.828000 -69.604909 30.587541 37.599382 109.566080 -61.629434 -85.356040 -0.373560 -0.937287 -7.020272 -7.125000 0.000000 0.000000 57.290991 -11.213237 36.537869 -59.807132 53.990422 -42.460479 1.894330 -0.314567 4.860903 7.125000 0.000000 0.000000 
0.440668 17.324624 8.068451 -7.925337 9.982097 -19.693507 -2.388799 -4.280205 -23.809375 4.393424 15.227489 45.706761 5.163973 -9.715616 27.999882 0.848300 -5.874200 -16.419900 12.210160 -6.058314 -28.877902 -15.123357 -19.688550 70.312192 2.834127 -12.913393 20.999744 -0.037500 1.249800 -3.436500 2.049726 1.758538 -1.914186 1.619114 0.669743 -3.636567 3.678306 -3.886965 9.486721 -0.657000 -1.968800 10.820800 -69.860011 31.319939 37.675508 110.315893 -61.555609 -85.736846 -0.353310 -0.933580 -7.871058 -7.125000 0.000000 0.000000 57.370477 -11.090838 36.489676 -63.571354 54.926805 -45.891118 1.884304 -0.214180 4.080803 7.125000 0.000000 0.000000 
0.466209 17.347902 8.432710 -7.295780 9.765455 -19.842096 -2.596470 -4.725694 -22.317122 4.132350 15.020913 45.077661 5.140345 -9.453426 28.476529 0.916300 -6.099200 -17.072400 11.594153 -6.302270 -29.414443 -15.534366 -19.793403 70.912309 3.767598 -15.267417 18.834585 -0.000400 -0.123600 0.339500 1.984620 1.721208 -1.884010 1.622974 0.655204 -3.643582 3.663237 -3.758971 9.519424 -0.658900 -1.907400 10.818500 -70.028369 31.926076 37.904838 111.008968 -61.453660 -86.082972 -0.330892 -0.941969 -8.687728 -7.125000 0.000000 0.000000 57.640337 -11.082762 36.158458 -67.434179 55.805316 -49.435632 1.884733 -0.113497 2.930955 7.125000 0.000000 0.000000 
0.487870 17.355985 8.793521 -6.615398 9.414288 -19.784848 -2.876903 -4.932483 -21.119245 3.849997 14.854455 44.725518 5.517681 -10.847026 28.120752 0.644100 -5.134300 -14.292000 10.978955 -6.255036 -30.080831 -15.760049 -19.839072 70.952132 4.792733 -17.819220 16.695743 -0.025200 -1.025600 2.819200 1.927094 1.734138 -1.873221 1.695677 0.658923 -3.638334 3.658439 -3.595480 9.600133 -0.658000 -1.827800 10.877000 -70.226087 32.398661 38.207397 111.641816 -61.330972 -86.382916 -0.314391 -0.941773 -9.306002 -7.125000 0.000000 0.000000 57.926882 -11.044732 35.695227 -71.296568 56.603157 -52.972755 1.874904 -0.031257 1.957593 7.125000 0.000000 0.000000 
0.510286 17.360942 9.152068 -6.260945 9.395212 -19.915547 -3.102554 -5.300916 -19.796015 3.628427 14.776269 44.721773 6.152606 -13.475553 27.038742 0.386900 -3.994400 -11.061000 10.557007 -6.367176 -30.520383 -15.574649 -19.803548 70.054566 5.624737 -19.673690 14.757403 -0.107000 -2.109400 5.808200 1.897084 1.574204 -1.871038 1.705685 0.571546 -3.739004 3.640006 -3.446121 9.632722 -0.655000 -1.759200 10.876600 -70.402784 32.681163 38.584620 112.079918 -61.215735 -86.567973 -0.302680 -0.944715 -9.855407 -7.125000 0.000000 0.000000 58.246021 -11.089743 35.182786 -75.309479 57.354314 -56.589818 1.869578 0.038224 1.044709 7.125000 0.000000 0.000000 
0.533241 17.348118 9.501994 -5.688515 8.765653 -19.830688 -3.487478 -4.787775 -18.956339 3.641798 14.837369 45.130327 6.504855 -15.169086 26.264099 0.122400 -2.255000 -6.211000 10.062766 -5.832028 -30.882626 -14.992724 -19.672775 68.261580 5.998407 -20.258905 13.752825 -0.224400 -3.049600 8.416800 1.852860 1.711520 -1.879038 1.702903 0.625213 -3.883221 3.648403 -3.289186 9.654227 -0.621400 -1.689000 10.893100 -70.576020 32.787310 39.085279 112.361538 -61.099551 -86.648204 -0.300893 -0.945505 -10.055702 -7.125000 0.000000 0.000000 58.636703 -11.177330 34.549458 -79.289691 58.001148 -60.106017 1.862857 0.072947 0.389464 7.125000 0.000000 0.000000 
